<svg width="153" height="147" viewBox="0 0 153 147" fill="none" xmlns="http://www.w3.org/2000/svg">
<rect x="1.25" y="1.25" width="149.856" height="144.5" stroke="#ffffff" stroke-width="2.5"/>
<path d="M24.8063 69V48.98H31.0363V44.01H13.5713V48.98H19.8013V69H24.8063ZM49.0066 69.35C66.2266 69.35 66.2266 43.555 49.0066 43.555C31.7866 43.555 31.7866 69.35 49.0066 69.35ZM49.0066 64.17C38.9966 64.17 38.9966 48.7 49.0066 48.7C59.0166 48.7 59.0166 64.17 49.0066 64.17ZM69.5754 69H74.5804V59.2L81.2304 69H87.4254L78.6054 56.33L86.7254 43.975H80.8804L74.5804 53.95V43.975H69.5754V69ZM106.623 69V63.995H98.6784V58.99H105.258V53.985H98.6784V48.98H106.203V43.975H93.6734V69H106.623ZM119.29 55.385L131.96 69.525H133.29V44.01H128.25V58.15L115.615 43.45H114.285V69H119.29V55.385Z" fill="#ffffff"/>
<path d="M27.7102 85.98V80.975H15.2152V106H20.2202V95.99H26.5902V90.985H20.2202V85.98H27.7102ZM49.4666 106.35C66.6866 106.35 66.6866 80.555 49.4666 80.555C32.2466 80.555 32.2466 106.35 49.4666 106.35ZM49.4666 101.17C39.4566 101.17 39.4566 85.7 49.4666 85.7C59.4766 85.7 59.4766 101.17 49.4666 101.17ZM72.6604 80.975V106H85.6104V100.995H77.6654V80.975H72.6604ZM100.526 106V80.975H95.5211V106H100.526ZM123.791 106.35C141.011 106.35 141.011 80.555 123.791 80.555C106.571 80.555 106.571 106.35 123.791 106.35ZM123.791 101.17C113.781 101.17 113.781 85.7 123.791 85.7C133.801 85.7 133.801 101.17 123.791 101.17Z" fill="#ffffff"/>
</svg>
