<svg width="21" height="21" viewBox="0 0 21 21" fill="none" xmlns="http://www.w3.org/2000/svg">
  <path d="M18.375 0.375H2.625C2.02826 0.375 1.45597 0.612053 1.03401 1.03401C0.612053 1.45597 0.375 2.02826 0.375 2.625V18.375C0.375 18.9717 0.612053 19.544 1.03401 19.966C1.45597 20.3879 2.02826 20.625 2.625 20.625H18.375C18.9717 20.625 19.544 20.3879 19.966 19.966C20.3879 19.544 20.625 18.9717 20.625 18.375V2.625C20.625 2.02826 20.3879 1.45597 19.966 1.03401C19.544 0.612053 18.9717 0.375 18.375 0.375ZM18.375 18.375H2.625V2.625H18.375V18.375ZM7.125 16.125H4.875V10.5H7.125V16.125ZM11.625 16.125H9.375V4.875H11.625V16.125ZM16.125 16.125H13.875V8.25H16.125V16.125Z" fill="current"/>
</svg>
