<svg width="19" height="23" viewBox="0 0 19 23" fill="none" xmlns="http://www.w3.org/2000/svg">
  <g clip-path="url(#clip0_257_308)">
    <path d="M18.6014 8.06739C18.5137 7.96964 18.4094 7.89213 18.2944 7.83935C18.1794 7.78658 18.0561 7.7596 17.9316 7.75999H17.2629V6.01806C17.2626 5.74096 17.1629 5.4753 16.9856 5.27936C16.8084 5.08343 16.568 4.97321 16.3173 4.9729H2.70969C1.97168 4.97291 1.2639 5.29696 0.742044 5.87376C0.220191 6.45056 -0.0729876 7.23286 -0.072998 8.04858V20.0133C-0.0729876 20.829 0.220191 21.6113 0.742044 22.1881C1.2639 22.7649 1.97168 23.089 2.70969 23.089H17.8944C18.1445 23.0884 18.3842 22.9786 18.5614 22.7834C18.7385 22.5883 18.8387 22.3236 18.84 22.0472L18.8771 8.80872C18.8779 8.67112 18.854 8.53472 18.8066 8.40745C18.7593 8.28019 18.6895 8.16459 18.6014 8.06739ZM17.5802 21.6954H2.70969C2.30606 21.6954 1.91896 21.5182 1.63355 21.2027C1.34814 20.8873 1.18779 20.4594 1.18779 20.0133V8.04858C1.18779 7.60245 1.34814 7.17459 1.63355 6.85913C1.91896 6.54367 2.30606 6.36644 2.70969 6.36644H16.0021V7.75999H2.76378V9.15353H17.6154L17.5802 21.6954Z" fill="#323232"/>
    <path d="M14.7856 14.2693H16.0777V15.6995H14.7856V14.2693Z" fill="#323232"/>
  </g>
  <defs>
    <clipPath id="clip0_257_308">
      <rect width="19" height="23" fill="white"/>
    </clipPath>
  </defs>
</svg>
